REM DIRINDEX 1\3,1\4,1\5,1\6,1\2\7,1\2\8,1\2\9,1\10
REM DIRNAME folder01,folder02,folder03,folder04,folder05,folder06,folder07,folder08,folder09,folder10
TITLE ""
FILE "1-55 Level 3-479-490.mp3" MP3
  TRACK 01 AUDIO
    TITLE "0:"
    INDEX 01 00:00:00
  TRACK 02 AUDIO
    TITLE "7:cjc056_1652"
    INDEX 01 00:00:05
  TRACK 03 AUDIO
    TITLE "0:"
    INDEX 01 00:01:11
  TRACK 04 AUDIO
    TITLE "8:cjc056_1653"
    INDEX 01 00:01:22
  TRACK 05 AUDIO
    TITLE "0:"
    INDEX 01 00:02:12
  TRACK 06 AUDIO
    TITLE "9:cjc056_1654"
    INDEX 01 00:02:22
  TRACK 07 AUDIO
    TITLE "0:"
    INDEX 01 00:03:68
  TRACK 08 AUDIO
    TITLE "7:cjc056_1655"
    INDEX 01 00:04:46
  TRACK 09 AUDIO
    TITLE "0:"
    INDEX 01 00:05:63
  TRACK 10 AUDIO
    TITLE "8:cjc056_1656"
    INDEX 01 00:06:02
  TRACK 11 AUDIO
    TITLE "0:"
    INDEX 01 00:07:21
  TRACK 12 AUDIO
    TITLE "9:cjc056_1657"
    INDEX 01 00:07:35
  TRACK 13 AUDIO
    TITLE "0:"
    INDEX 01 00:09:02
  TRACK 14 AUDIO
    TITLE "7:cjc056_1658"
    INDEX 01 00:09:53
  TRACK 15 AUDIO
    TITLE "0:"
    INDEX 01 00:10:61
  TRACK 16 AUDIO
    TITLE "8:cjc056_1659"
    INDEX 01 00:10:72
  TRACK 17 AUDIO
    TITLE "0:"
    INDEX 01 00:12:14
  TRACK 18 AUDIO
    TITLE "9:cjc056_1660"
    INDEX 01 00:12:26
  TRACK 19 AUDIO
    TITLE "0:"
    INDEX 01 00:14:53
  TRACK 20 AUDIO
    TITLE "7:cjc056_1661"
    INDEX 01 00:15:28
  TRACK 21 AUDIO
    TITLE "0:"
    INDEX 01 00:16:65
  TRACK 22 AUDIO
    TITLE "8:cjc056_1662"
    INDEX 01 00:17:04
  TRACK 23 AUDIO
    TITLE "0:"
    INDEX 01 00:18:27
  TRACK 24 AUDIO
    TITLE "9:cjc056_1663"
    INDEX 01 00:18:42
  TRACK 25 AUDIO
    TITLE "0:"
    INDEX 01 00:20:28
  TRACK 26 AUDIO
    TITLE "7:cjc056_1664"
    INDEX 01 00:21:04
  TRACK 27 AUDIO
    TITLE "0:"
    INDEX 01 00:22:23
  TRACK 28 AUDIO
    TITLE "8:cjc056_1665"
    INDEX 01 00:22:36
  TRACK 29 AUDIO
    TITLE "0:"
    INDEX 01 00:23:53
  TRACK 30 AUDIO
    TITLE "9:cjc056_1666"
    INDEX 01 00:23:65
  TRACK 31 AUDIO
    TITLE "0:"
    INDEX 01 00:25:52
  TRACK 32 AUDIO
    TITLE "7:cjc056_1667"
    INDEX 01 00:26:28
  TRACK 33 AUDIO
    TITLE "0:"
    INDEX 01 00:27:38
  TRACK 34 AUDIO
    TITLE "8:cjc056_1668"
    INDEX 01 00:27:51
  TRACK 35 AUDIO
    TITLE "0:"
    INDEX 01 00:28:59
  TRACK 36 AUDIO
    TITLE "9:cjc056_1669"
    INDEX 01 00:28:68
  TRACK 37 AUDIO
    TITLE "0:"
    INDEX 01 00:30:34
  TRACK 38 AUDIO
    TITLE "7:cjc056_1670"
    INDEX 01 00:31:12
  TRACK 39 AUDIO
    TITLE "0:"
    INDEX 01 00:32:41
  TRACK 40 AUDIO
    TITLE "8:cjc056_1671"
    INDEX 01 00:32:54
  TRACK 41 AUDIO
    TITLE "0:"
    INDEX 01 00:33:68
  TRACK 42 AUDIO
    TITLE "9:cjc056_1672"
    INDEX 01 00:34:04
  TRACK 43 AUDIO
    TITLE "0:"
    INDEX 01 00:35:74
  TRACK 44 AUDIO
    TITLE "7:cjc056_1673"
    INDEX 01 00:36:48
  TRACK 45 AUDIO
    TITLE "0:"
    INDEX 01 00:37:57
  TRACK 46 AUDIO
    TITLE "8:cjc056_1674"
    INDEX 01 00:37:71
  TRACK 47 AUDIO
    TITLE "0:"
    INDEX 01 00:39:37
  TRACK 48 AUDIO
    TITLE "9:cjc056_1675"
    INDEX 01 00:39:51
  TRACK 49 AUDIO
    TITLE "0:"
    INDEX 01 00:42:21
  TRACK 50 AUDIO
    TITLE "7:cjc056_1676"
    INDEX 01 00:42:72
  TRACK 51 AUDIO
    TITLE "0:"
    INDEX 01 00:44:05
  TRACK 52 AUDIO
    TITLE "8:cjc056_1677"
    INDEX 01 00:44:18
  TRACK 53 AUDIO
    TITLE "0:"
    INDEX 01 00:45:39
  TRACK 54 AUDIO
    TITLE "9:cjc056_1678"
    INDEX 01 00:45:51
  TRACK 55 AUDIO
    TITLE "0:"
    INDEX 01 00:47:32
  TRACK 56 AUDIO
    TITLE "8:cjc056_1679"
    INDEX 01 00:47:60
  TRACK 57 AUDIO
    TITLE "0:"
    INDEX 01 00:50:07
  TRACK 58 AUDIO
    TITLE "9:cjc056_1680"
    INDEX 01 00:50:19
  TRACK 59 AUDIO
    TITLE "0:"
    INDEX 01 00:51:63
  TRACK 60 AUDIO
    TITLE "7:cjc056_1681"
    INDEX 01 00:52:39
  TRACK 61 AUDIO
    TITLE "0:"
    INDEX 01 00:53:45
  TRACK 62 AUDIO
    TITLE "8:cjc056_1682"
    INDEX 01 00:53:57
  TRACK 63 AUDIO
    TITLE "0:"
    INDEX 01 00:54:58
  TRACK 64 AUDIO
    TITLE "9:cjc056_1683"
    INDEX 01 00:54:72
  TRACK 65 AUDIO
    TITLE "0:"
    INDEX 01 00:56:59
  TRACK 66 AUDIO
    TITLE "7:cjc056_1684"
    INDEX 01 00:57:35
  TRACK 67 AUDIO
    TITLE "0:"
    INDEX 01 00:58:32
  TRACK 68 AUDIO
    TITLE "8:cjc056_1685"
    INDEX 01 00:58:46
  TRACK 69 AUDIO
    TITLE "0:"
    INDEX 01 00:59:47
  TRACK 70 AUDIO
    TITLE "9:cjc056_1686"
    INDEX 01 00:59:59
  TRACK 71 AUDIO
    TITLE "0:"
    INDEX 01 01:01:17
  TRACK 72 AUDIO
    TITLE "8:cjc056_1687"
    INDEX 01 01:01:40
  TRACK 73 AUDIO
    TITLE "0:"
    INDEX 01 01:02:57
  TRACK 74 AUDIO
    TITLE "9:cjc056_1688"
    INDEX 01 01:02:67
  TRACK 75 AUDIO
    TITLE "0:"
    INDEX 01 01:04:31
  TRACK 76 AUDIO
    TITLE "7:cjc056_1689"
    INDEX 01 01:05:07
  TRACK 77 AUDIO
    TITLE "0:"
    INDEX 01 01:06:08
  TRACK 78 AUDIO
    TITLE "8:cjc056_1690"
    INDEX 01 01:06:24
  TRACK 79 AUDIO
    TITLE "0:"
    INDEX 01 01:07:49
  TRACK 80 AUDIO
    TITLE "9:cjc056_1691"
    INDEX 01 01:07:63
  TRACK 81 AUDIO
    TITLE "0:"
    INDEX 01 01:09:30
  TRACK 82 AUDIO
    TITLE "8:cjc056_1692"
    INDEX 01 01:09:57
  TRACK 83 AUDIO
    TITLE "0:"
    INDEX 01 01:11:13
  TRACK 84 AUDIO
    TITLE "9:cjc056_1693"
    INDEX 01 01:11:29
  TRACK 85 AUDIO
    TITLE "0:"
    INDEX 01 01:13:00
